# 3ds Max Wavefront OBJ Exporter v0.97b - (c)2007 guruware
# File Created: 20.10.2018 16:52:21

mtllib Wall.mtl

#
# object Wall
#

v  -13.9462 -0.0000 28.8462
v  -13.9462 -0.0000 30.8462
v  -13.7462 -0.0000 30.8462
v  -13.7462 -0.0000 28.8462
v  -13.7462 -1.6667 30.8462
v  -13.7462 -1.6667 28.8462
v  -13.9462 -1.6667 28.8462
v  -13.9462 -1.6667 30.8462
v  -13.9462 -5.0000 28.8462
v  -13.7462 -5.0000 28.8462
v  -13.9462 -5.0000 24.8462
v  -13.7462 -5.0000 24.8462
v  -13.9462 -0.0000 24.8462
v  -13.7462 -0.0000 24.8462
v  -13.7462 -5.0000 30.8462
v  -13.9462 -5.0000 30.8462
v  -13.7462 -5.0000 34.8462
v  -13.9462 -5.0000 34.8462
v  -13.7462 -0.0000 34.8462
v  -13.9462 -0.0000 34.8462
# 20 vertices

vn 0.0000 1.0000 0.0000
vn 1.0000 0.0000 0.0000
vn -1.0000 0.0000 0.0000
vn 0.0000 -1.0000 -0.0000
vn 0.0000 0.0000 0.0000
vn 0.0000 -0.0000 1.0000
vn 0.0000 0.0000 -1.0000
# 7 vertex normals

vt 1.0000 0.4000 0.0000
vt 1.0000 0.6000 0.0000
vt 0.0000 0.6000 0.0000
vt 0.0000 0.4000 0.0000
vt 0.4000 0.0000 0.0000
vt 0.6000 0.0000 0.0000
vt 0.6000 0.3333 0.0000
vt 0.4000 0.3333 0.0000
vt 0.0000 0.0000 0.0000
vt 1.0000 0.0000 0.0000
vt 1.0000 1.0000 0.0000
vt 0.0000 1.0000 0.0000
# 12 texture coords

o Wall
g Wall
usemtl wire_140088225
s 2
f 1/1/1 2/2/1 3/3/1 
f 3/3/1 4/4/1 1/1/1 
s 16
f 4/5/2 3/6/2 5/7/2 
f 5/7/2 6/8/2 4/5/2 
s 64
f 2/5/3 1/6/3 7/7/3 
f 7/7/3 8/8/3 2/5/3 
s off
f 7/7/4 6/8/4 5/7/4 
f 7/7/4 5/7/4 8/8/4 
f 9/4/5 7/7/5 1/1/5 
f 6/8/6 7/7/6 9/4/6 
f 6/8/6 9/4/6 10/1/6 
f 9/4/4 11/9/4 12/10/4 
f 9/4/4 12/10/4 10/1/4 
f 11/9/7 13/10/7 14/9/7 
f 11/9/7 14/9/7 12/10/7 
f 4/4/1 14/9/1 13/10/1 
f 4/4/1 13/10/1 1/1/1 
f 1/1/3 13/10/3 11/9/3 
f 11/9/3 9/4/3 7/7/3 
f 11/9/3 7/7/3 1/1/3 
f 6/8/2 10/1/2 12/10/2 
f 12/10/2 14/9/2 4/4/2 
f 12/10/2 4/4/2 6/8/2 
f 5/7/7 15/2/7 16/3/7 
f 5/7/7 16/3/7 8/8/7 
f 15/2/4 17/11/4 18/12/4 
f 15/2/4 18/12/4 16/3/4 
f 17/11/6 19/12/6 20/11/6 
f 17/11/6 20/11/6 18/12/6 
f 19/12/1 3/3/1 2/2/1 
f 19/12/1 2/2/1 20/11/1 
f 5/7/2 3/3/2 19/12/2 
f 19/12/2 17/11/2 15/2/2 
f 19/12/2 15/2/2 5/7/2 
f 16/3/3 18/12/3 20/11/3 
f 20/11/3 2/2/3 8/8/3 
f 20/11/3 8/8/3 16/3/3 
# 37 faces

